<?xml version="1.0" encoding="UTF-8"?>
<svg xmlns="http://www.w3.org/2000/svg" viewBox="0 0 800 500">
  <defs>
    <linearGradient id="bgGradient" x1="0%" y1="0%" x2="100%" y2="100%">
      <stop offset="0%" style="stop-color:#e3f2fd;stop-opacity:1" />
      <stop offset="100%" style="stop-color:#bbdefb;stop-opacity:1" />
    </linearGradient>
    <linearGradient id="headerGradient" x1="0%" y1="0%" x2="100%" y2="0%">
      <stop offset="0%" style="stop-color:#1976d2;stop-opacity:1" />
      <stop offset="100%" style="stop-color:#1565c0;stop-opacity:1" />
    </linearGradient>
  </defs>
  
  <!-- Background -->
  <rect width="800" height="500" fill="url(#bgGradient)"/>
  
  <!-- Header -->
  <rect x="0" y="0" width="800" height="60" fill="url(#headerGradient)"/>
  <text x="400" y="38" text-anchor="middle" font-family="Arial, sans-serif" font-size="24" font-weight="bold" fill="#fff">README Enhancement Complete</text>
  
  <!-- Main Content Area -->
  <g transform="translate(50, 80)">
    <!-- Left Column -->
    <g transform="translate(0, 0)">
      <rect x="0" y="0" width="300" height="350" fill="#fff" rx="8" stroke="#1976d2" stroke-width="2"/>
      <rect x="0" y="0" width="300" height="40" fill="#1976d2" rx="8"/>
      <text x="150" y="25" text-anchor="middle" font-size="16" font-weight="bold" fill="#fff">Visual Assets Created</text>
      
      <g transform="translate(20, 60)">
        <circle cx="10" cy="10" r="8" fill="#4caf50"/>
        <text x="25" y="15" font-size="14" fill="#333">Professional logo with Python branding</text>
        
        <circle cx="10" cy="40" r="8" fill="#4caf50"/>
        <text x="25" y="45" font-size="14" fill="#333">Complete icon set for all features</text>
        
        <circle cx="10" cy="70" r="8" fill="#4caf50"/>
        <text x="25" y="75" font-size="14" fill="#333">Workflow process diagram</text>
        
        <circle cx="10" cy="100" r="8" fill="#4caf50"/>
        <text x="25" y="105" font-size="14" fill="#333">SemVer compatibility guide</text>
        
        <circle cx="10" cy="130" r="8" fill="#4caf50"/>
        <text x="25" y="135" font-size="14" fill="#333">Feature comparison charts</text>
        
        <circle cx="10" cy="160" r="8" fill="#4caf50"/>
        <text x="25" y="165" font-size="14" fill="#333">Enhanced documentation visuals</text>
        
        <circle cx="10" cy="190" r="8" fill="#4caf50"/>
        <text x="25" y="195" font-size="14" fill="#333">GitHub-ready badge collection</text>
        
        <circle cx="10" cy="220" r="8" fill="#4caf50"/>
        <text x="25" y="225" font-size="14" fill="#333">Scalable SVG format for all assets</text>
        
        <circle cx="10" cy="250" r="8" fill="#4caf50"/>
        <text x="25" y="255" font-size="14" fill="#333">Consistent color scheme</text>
        
        <circle cx="10" cy="280" r="8" fill="#4caf50"/>
        <text x="25" y="285" font-size="14" fill="#333">Professional design aesthetic</text>
      </g>
    </g>
    
    <!-- Right Column -->
    <g transform="translate(400, 0)">
      <rect x="0" y="0" width="300" height="350" fill="#fff" rx="8" stroke="#1976d2" stroke-width="2"/>
      <rect x="0" y="0" width="300" height="40" fill="#1976d2" rx="8"/>
      <text x="150" y="25" text-anchor="middle" font-size="16" font-weight="bold" fill="#fff">README Improvements</text>
      
      <g transform="translate(20, 60)">
        <circle cx="10" cy="10" r="8" fill="#2196f3"/>
        <text x="25" y="15" font-size="14" fill="#333">Centered logo and branding</text>
        
        <circle cx="10" cy="40" r="8" fill="#2196f3"/>
        <text x="25" y="45" font-size="14" fill="#333">Professional badge collection</text>
        
        <circle cx="10" cy="70" r="8" fill="#2196f3"/>
        <text x="25" y="75" font-size="14" fill="#333">Visual workflow demonstration</text>
        
        <circle cx="10" cy="100" r="8" fill="#2196f3"/>
        <text x="25" y="105" font-size="14" fill="#333">Live output examples</text>
        
        <circle cx="10" cy="130" r="8" fill="#2196f3"/>
        <text x="25" y="135" font-size="14" fill="#333">Feature matrix with icons</text>
        
        <circle cx="10" cy="160" r="8" fill="#2196f3"/>
        <text x="25" y="165" font-size="14" fill="#333">SemVer guide visualization</text>
        
        <circle cx="10" cy="190" r="8" fill="#2196f3"/>
        <text x="25" y="195" font-size="14" fill="#333">Enhanced documentation links</text>
        
        <circle cx="10" cy="220" r="8" fill="#2196f3"/>
        <text x="25" y="225" font-size="14" fill="#333">Improved project structure</text>
        
        <circle cx="10" cy="250" r="8" fill="#2196f3"/>
        <text x="25" y="255" font-size="14" fill="#333">Directory-specific READMEs</text>
        
        <circle cx="10" cy="280" r="8" fill="#2196f3"/>
        <text x="25" y="285" font-size="14" fill="#333">Professional presentation</text>
      </g>
    </g>
  </g>
  
  <!-- Bottom Status -->
  <rect x="50" y="450" width="700" height="40" fill="#4caf50" rx="8"/>
  <text x="400" y="475" text-anchor="middle" font-size="18" font-weight="bold" fill="#fff">✅ All README.md Files Enhanced with Professional SVG Assets</text>
</svg>