<?xml version="1.0" encoding="UTF-8"?>
<svg xmlns="http://www.w3.org/2000/svg" viewBox="0 0 600 400">
  <defs>
    <linearGradient id="headerGradient" x1="0%" y1="0%" x2="100%" y2="0%">
      <stop offset="0%" style="stop-color:#1976d2;stop-opacity:1" />
      <stop offset="100%" style="stop-color:#1565c0;stop-opacity:1" />
    </linearGradient>
  </defs>
  
  <!-- Title -->
  <rect x="0" y="0" width="600" height="50" fill="url(#headerGradient)"/>
  <text x="300" y="32" text-anchor="middle" font-family="Arial, sans-serif" font-size="20" font-weight="bold" fill="#fff">Update Types &amp; Compatibility</text>
  
  <!-- Compatible Updates Section -->
  <g transform="translate(50, 80)">
    <rect x="0" y="0" width="200" height="120" fill="#e8f5e8" rx="8" stroke="#4caf50" stroke-width="2"/>
    <circle cx="20" cy="20" r="10" fill="#4caf50"/>
    <path d="M15 20 L18 23 L25 15" stroke="#fff" stroke-width="2" fill="none"/>
    <text x="40" y="25" font-size="16" font-weight="bold" fill="#2e7d32">Compatible Updates</text>
    
    <g transform="translate(10, 40)">
      <rect x="0" y="0" width="180" height="25" fill="#c8e6c9" rx="4"/>
      <text x="10" y="17" font-size="12" font-weight="bold" fill="#1b5e20">Patch: 1.2.0 → 1.2.1</text>
      <circle cx="160" cy="12" r="8" fill="#4caf50"/>
      <text x="160" y="16" text-anchor="middle" font-size="10" font-weight="bold" fill="#fff">✓</text>
    </g>
    
    <g transform="translate(10, 70)">
      <rect x="0" y="0" width="180" height="25" fill="#a5d6a7" rx="4"/>
      <text x="10" y="17" font-size="12" font-weight="bold" fill="#1b5e20">Minor: 1.2.0 → 1.3.0</text>
      <circle cx="160" cy="12" r="8" fill="#4caf50"/>
      <text x="160" y="16" text-anchor="middle" font-size="10" font-weight="bold" fill="#fff">✓</text>
    </g>
  </g>
  
  <!-- Breaking Updates Section -->
  <g transform="translate(350, 80)">
    <rect x="0" y="0" width="200" height="120" fill="#ffebee" rx="8" stroke="#f44336" stroke-width="2"/>
    <circle cx="20" cy="20" r="10" fill="#f44336"/>
    <path d="M15 15 L25 25 M15 25 L25 15" stroke="#fff" stroke-width="2"/>
    <text x="40" y="25" font-size="16" font-weight="bold" fill="#c62828">Breaking Changes</text>
    
    <g transform="translate(10, 40)">
      <rect x="0" y="0" width="180" height="25" fill="#ffcdd2" rx="4"/>
      <text x="10" y="17" font-size="12" font-weight="bold" fill="#b71c1c">Major: 1.2.0 → 2.0.0</text>
      <circle cx="160" cy="12" r="8" fill="#f44336"/>
      <text x="160" y="16" text-anchor="middle" font-size="10" font-weight="bold" fill="#fff">✗</text>
    </g>
    
    <g transform="translate(10, 70)">
      <rect x="0" y="0" width="180" height="25" fill="#ef9a9a" rx="4"/>
      <text x="10" y="17" font-size="12" font-weight="bold" fill="#b71c1c">Major: 2.1.0 → 3.0.0</text>
      <circle cx="160" cy="12" r="8" fill="#f44336"/>
      <text x="160" y="16" text-anchor="middle" font-size="10" font-weight="bold" fill="#fff">✗</text>
    </g>
  </g>
  
  <!-- Legend -->
  <g transform="translate(50, 250)">
    <rect x="0" y="0" width="500" height="120" fill="#f5f5f5" rx="8" stroke="#ddd" stroke-width="1"/>
    <text x="250" y="25" text-anchor="middle" font-size="16" font-weight="bold" fill="#333">Semantic Versioning Guide</text>
    
    <g transform="translate(20, 40)">
      <circle cx="10" cy="10" r="8" fill="#4caf50"/>
      <text x="25" y="15" font-size="12" font-weight="bold" fill="#2e7d32">Patch (1.0.0 → 1.0.1)</text>
      <text x="25" y="30" font-size="11" fill="#666">Bug fixes, always safe to update</text>
    </g>
    
    <g transform="translate(200, 40)">
      <circle cx="10" cy="10" r="8" fill="#4caf50"/>
      <text x="25" y="15" font-size="12" font-weight="bold" fill="#2e7d32">Minor (1.0.0 → 1.1.0)</text>
      <text x="25" y="30" font-size="11" fill="#666">New features, backward compatible</text>
    </g>
    
    <g transform="translate(20, 70)">
      <circle cx="10" cy="10" r="8" fill="#f44336"/>
      <text x="25" y="15" font-size="12" font-weight="bold" fill="#c62828">Major (1.0.0 → 2.0.0)</text>
      <text x="25" y="30" font-size="11" fill="#666">Breaking changes, review required</text>
    </g>
    
    <g transform="translate(200, 70)">
      <circle cx="10" cy="10" r="8" fill="#ff9800"/>
      <text x="25" y="15" font-size="12" font-weight="bold" fill="#e65100">Pre-release (1.0.0-beta.1)</text>
      <text x="25" y="30" font-size="11" fill="#666">Alpha, beta, RC versions</text>
    </g>
  </g>
</svg>